<?xml version="1.0" standalone="no"?>
<!DOCTYPE svg PUBLIC "-//W3C//DTD SVG 20010904//EN"
 "http://www.w3.org/TR/2001/REC-SVG-20010904/DTD/svg10.dtd">
<svg version="1.0" xmlns="http://www.w3.org/2000/svg"
 width="1024.000000pt" height="1024.000000pt" viewBox="0 0 1024.000000 1024.000000"
 preserveAspectRatio="xMidYMid meet">
<metadata>
Created by potrace 1.14, written by Peter Selinger 2001-2017
</metadata>
<g transform="translate(0.000000,1024.000000) scale(0.100000,-0.100000)"
fill="#000000" stroke="none">
<path d="M3619 9003 c-11 -13 -11 -17 -1 -20 6 -3 10 -9 6 -14 -9 -15 6 -10
33 11 19 15 30 17 44 10 29 -16 34 -31 6 -21 -17 7 -24 6 -24 -4 0 -8 7 -11
15 -7 9 3 13 1 9 -4 -3 -5 2 -10 12 -10 12 0 17 9 18 34 0 22 -2 30 -8 21 -6
-11 -11 -10 -26 2 -25 21 -68 22 -84 2z m31 -3 c0 -5 -4 -10 -10 -10 -5 0 -10
5 -10 10 0 6 5 10 10 10 6 0 10 -4 10 -10z"/>
<path d="M3650 8960 c0 -5 5 -10 10 -10 6 0 10 5 10 10 0 6 -4 10 -10 10 -5 0
-10 -4 -10 -10z"/>
<path d="M3637 8930 c9 -11 19 -17 21 -15 6 6 -18 35 -29 35 -5 0 -1 -9 8 -20z"/>
<path d="M6445 8930 c-10 -11 -13 -20 -7 -20 6 0 9 -10 7 -22 -4 -21 -3 -21 9
-6 7 10 16 15 20 11 4 -4 4 0 0 10 -3 9 -10 14 -15 11 -5 -3 -9 -1 -9 5 0 5 6
11 13 14 6 2 9 7 6 11 -3 3 -14 -3 -24 -14z"/>
<path d="M3670 8930 c0 -5 5 -10 11 -10 5 0 7 5 4 10 -3 6 -8 10 -11 10 -2 0
-4 -4 -4 -10z"/>
<path d="M2995 8861 c-148 -68 -171 -281 -40 -371 64 -44 121 -55 187 -36 126
36 194 183 139 301 -22 47 -74 99 -114 114 -44 17 -127 13 -172 -8z m124 -136
c63 -32 41 -117 -31 -123 -69 -6 -100 75 -46 121 25 21 40 21 77 2z"/>
<path d="M6421 8855 c0 -18 30 -65 42 -65 3 0 3 10 0 23 -4 18 -3 20 7 7 10
-13 11 -12 6 3 -3 10 -6 23 -6 28 0 20 -20 7 -21 -13 -1 -21 -2 -20 -14 7 -11
23 -14 25 -14 10z"/>
<path d="M7903 8766 c-168 -39 -296 -133 -383 -281 -13 -22 -25 -42 -26 -44
-6 -7 -117 74 -131 96 -17 26 -10 43 18 43 11 0 29 4 39 10 21 11 70 91 70
114 0 28 -42 40 -145 40 -149 0 -221 -38 -232 -123 -11 -84 75 -188 250 -301
l86 -55 0 -77 c1 -104 16 -170 57 -252 44 -87 98 -152 177 -212 120 -91 253
-130 404 -120 147 11 277 70 379 175 l49 50 65 -14 c274 -58 453 6 410 148 -7
23 -25 60 -41 83 -35 51 -139 147 -181 167 -31 15 -32 15 -58 -22 -54 -74 -54
-73 1 -127 32 -31 49 -57 49 -72 0 -24 -1 -25 -72 -18 -40 4 -77 11 -82 16 -5
5 -2 39 8 80 34 154 8 293 -82 431 -79 121 -185 203 -320 248 -83 28 -226 36
-309 17z m176 -168 c11 -11 12 -10 7 0 -16 28 116 -20 186 -67 148 -100 209
-262 172 -456 -3 -16 -6 -30 -7 -31 -6 -6 -117 19 -117 26 0 4 -15 10 -32 12
-18 3 -55 13 -83 23 -154 57 -233 87 -257 100 -14 8 -33 15 -42 15 -9 0 -16 4
-16 9 0 5 -12 11 -27 13 -20 2 -28 8 -27 21 2 13 -1 15 -11 7 -15 -13 -48 -2
-38 13 3 6 1 7 -5 3 -12 -7 -92 32 -92 45 0 3 7 12 15 19 12 10 15 10 15 0 0
-8 3 -11 6 -7 3 3 2 13 -4 22 -8 16 -10 16 -24 -4 -21 -30 -50 -18 -41 18 8
33 37 76 66 96 12 8 18 15 14 15 -5 0 -2 7 7 15 17 18 30 20 20 3 -4 -7 -3 -8
5 -4 6 4 9 11 6 16 -7 12 22 33 36 24 8 -4 9 -3 5 4 -4 7 4 14 21 18 15 4 34
11 41 17 6 5 12 7 12 4 0 -2 17 1 38 9 47 17 134 18 151 2z m-331 -496 c42
-21 119 -56 170 -77 50 -22 92 -42 92 -46 0 -14 -99 -20 -157 -9 -78 14 -111
30 -157 80 -35 38 -55 90 -34 90 4 0 43 -17 86 -38z"/>
<path d="M7721 8444 c0 -11 3 -14 6 -6 3 7 2 16 -1 19 -3 4 -6 -2 -5 -13z"/>
<path d="M7979 8363 c-13 -16 -12 -17 4 -4 9 7 17 15 17 17 0 8 -8 3 -21 -13z"/>
<path d="M7975 8217 c-17 -13 -17 -14 1 -19 14 -4 20 0 20 13 0 11 -1 19 -1
19 -1 0 -9 -6 -20 -13z"/>
<path d="M8415 8150 c3 -5 8 -10 11 -10 2 0 4 5 4 10 0 6 -5 10 -11 10 -5 0
-7 -4 -4 -10z"/>
<path d="M4935 8719 c-688 -45 -1363 -314 -1890 -752 -222 -184 -491 -488
-672 -758 -341 -507 -557 -1130 -580 -1669 l-6 -155 -50 -55 c-103 -113 -155
-286 -164 -550 -15 -424 90 -709 301 -809 35 -17 80 -34 101 -39 l37 -7 24
-95 c58 -231 150 -439 298 -678 110 -178 205 -294 385 -472 l176 -175 5 -250
c5 -272 7 -281 67 -336 67 -63 215 -142 411 -221 838 -335 2083 -392 3086
-142 335 84 640 208 800 326 104 76 106 81 106 382 l0 249 63 55 c264 235 478
511 623 807 73 150 150 357 174 470 16 73 22 81 63 89 45 9 133 51 171 82 47
40 105 121 138 193 81 176 109 531 63 792 -27 152 -64 238 -149 342 l-43 53
-6 144 c-40 856 -510 1786 -1215 2399 -401 348 -931 610 -1462 720 -241 50
-614 76 -855 60z m605 -274 c546 -85 1030 -298 1458 -643 385 -308 645 -632
884 -1097 202 -394 338 -916 338 -1303 0 -101 1 -104 29 -130 15 -15 43 -36
61 -47 46 -28 67 -60 85 -130 28 -107 38 -252 32 -450 -11 -369 -48 -480 -170
-514 -37 -11 -59 -11 -116 0 -44 7 -75 9 -80 3 -5 -5 -25 -72 -44 -149 -105
-425 -342 -834 -682 -1178 -69 -70 -130 -138 -135 -152 -6 -15 -10 -64 -10
-110 0 -83 0 -84 -32 -108 -77 -58 -371 -188 -563 -250 -246 -79 -611 -155
-890 -186 -396 -44 -915 -35 -1325 25 -291 42 -634 128 -867 219 -156 61 -376
170 -413 205 -29 27 -30 31 -30 120 l0 92 -128 132 c-373 385 -609 800 -708
1246 -25 113 -23 111 -91 94 -78 -18 -120 -17 -169 5 -77 35 -103 99 -130 326
-12 106 -15 186 -11 330 9 296 39 396 132 447 27 14 54 34 61 42 6 9 13 81 17
173 25 654 300 1344 757 1900 105 127 337 354 465 454 481 377 989 579 1640
652 92 11 532 -2 635 -18z m-2336 -6213 c58 -27 102 -53 98 -57 -4 -5 -2 -5 5
-1 6 3 51 -10 100 -30 167 -70 360 -127 648 -194 238 -56 632 -96 1015 -104
498 -11 1018 54 1443 179 26 8 47 11 47 8 0 -3 6 -1 13 5 6 6 39 17 72 26 33
9 96 30 140 46 44 17 85 32 92 34 7 1 16 5 19 9 4 4 13 7 20 7 10 0 6 -14 -12
-46 -32 -58 -61 -90 -99 -114 -61 -37 -411 -144 -515 -157 -25 -3 -47 -9 -50
-13 -3 -4 -30 -11 -60 -15 -30 -4 -80 -13 -110 -20 -30 -8 -82 -16 -115 -19
-33 -3 -125 -14 -205 -25 -183 -25 -436 -38 -700 -35 -238 3 -350 12 -675 55
-235 32 -616 121 -815 191 -63 22 -119 45 -124 49 -6 5 -16 9 -24 9 -7 0 -52
18 -100 41 -211 99 -221 108 -222 177 0 23 2 42 4 42 2 0 51 -22 110 -48z"/>
<path d="M3874 7901 c-60 -15 -105 -51 -130 -105 -30 -64 -30 -110 -1 -166 50
-99 155 -137 252 -90 117 57 148 199 63 296 -51 57 -118 81 -184 65z"/>
<path d="M6275 7886 c-62 -27 -115 -113 -115 -186 0 -34 32 -100 61 -127 125
-115 329 -25 329 145 0 31 -27 92 -53 120 -53 57 -152 78 -222 48z"/>
<path d="M5025 7384 c-382 -22 -724 -97 -1055 -232 -77 -31 -239 -108 -249
-118 -2 -2 3 -12 11 -21 8 -10 32 -49 52 -88 55 -105 50 -101 150 -107 89 -6
128 4 219 53 10 5 22 7 27 4 4 -3 10 0 12 6 3 8 10 8 26 -2 29 -18 28 -23 -12
-37 -18 -7 -44 -22 -57 -33 -13 -11 -30 -24 -38 -29 -11 -6 -6 -16 23 -46 65
-67 90 -127 90 -219 1 -97 -21 -153 -87 -219 -69 -68 -117 -89 -219 -94 -76
-4 -100 -1 -174 23 -221 70 -391 -13 -568 -278 -67 -101 -92 -119 -132 -92
-23 15 -25 22 -21 52 10 62 187 313 332 473 90 99 210 216 244 238 13 9 36 41
50 72 14 30 27 57 28 61 2 3 -18 32 -43 65 -26 32 -53 73 -60 91 l-14 32 -82
-55 c-276 -186 -557 -486 -711 -760 -131 -233 -212 -443 -282 -728 -78 -318
-97 -482 -98 -826 0 -330 27 -522 104 -755 123 -370 435 -811 752 -1063 342
-271 847 -451 1460 -518 207 -23 644 -23 857 0 509 56 995 203 1285 390 209
135 385 298 546 506 184 237 305 456 383 691 59 177 84 335 97 604 20 412 -18
745 -127 1120 -52 176 -97 292 -179 457 -234 472 -597 827 -1090 1068 -348
170 -665 261 -1045 299 -124 12 -321 20 -405 15z m-514 -333 c42 -42 40 -92
-5 -137 -29 -29 -41 -34 -79 -34 -39 0 -49 5 -76 35 -42 49 -41 87 3 131 29
29 41 34 81 34 38 0 52 -5 76 -29z m-262 -148 c-3 -20 3 -23 24 -12 21 11 21
10 5 -6 -15 -16 -18 -16 -38 -2 -20 14 -18 18 8 26 1 1 1 -2 1 -6z m253 -99
c38 -19 60 -56 65 -107 8 -79 -60 -147 -147 -147 -63 0 -104 28 -125 84 -50
130 78 235 207 170z m-772 -633 c100 -48 148 -163 116 -274 -53 -181 -319
-259 -468 -137 -108 90 -104 259 10 362 52 47 76 60 142 74 71 16 131 8 200
-25z m2040 -572 c0 -18 257 -523 335 -659 122 -212 161 -251 254 -252 85 0
138 40 194 148 24 47 85 253 116 392 l27 123 64 -203 c35 -112 78 -235 95
-274 42 -93 69 -110 206 -127 l104 -13 3 -489 c4 -640 -5 -718 -98 -910 -127
-260 -355 -466 -674 -607 -264 -118 -580 -197 -911 -229 -127 -12 -521 -15
-645 -5 -510 42 -998 199 -1279 412 -205 155 -333 316 -406 511 -57 149 -57
154 -62 759 l-5 560 106 11 c136 14 173 34 210 112 27 56 62 167 113 354 14
54 29 94 33 90 4 -4 15 -42 25 -83 26 -113 93 -316 131 -395 46 -99 79 -128
151 -133 73 -5 116 21 150 91 26 51 69 258 98 469 10 70 22 125 27 122 4 -3
18 -24 29 -47 32 -62 155 -244 208 -307 168 -199 378 -331 611 -387 108 -25
357 -25 420 0 80 33 121 87 176 235 47 125 131 476 169 710 4 23 11 40 16 36
5 -3 9 -9 9 -15z m-2946 -945 c12 -87 10 -92 -41 -118 -62 -33 -85 -53 -117
-100 l-26 -39 0 121 0 120 43 17 c67 28 111 44 123 45 6 0 14 -21 18 -46z
m4715 16 c89 -35 91 -37 91 -142 l0 -68 -61 40 c-34 22 -77 45 -95 52 -19 7
-34 19 -35 28 -5 86 -3 120 9 120 7 0 48 -14 91 -30z m-4732 -248 c9 -5 14
-84 19 -276 l7 -268 -21 11 c-23 12 -78 78 -109 131 -28 47 -41 97 -54 208
-10 87 -9 95 11 127 36 58 109 91 147 67z m4771 -112 c41 -39 47 -65 33 -146
-17 -95 -60 -184 -118 -241 l-48 -48 -3 199 -2 200 32 33 c40 41 66 42 106 3z"/>
<path d="M3839 4567 c-159 -60 -243 -205 -242 -422 0 -248 132 -410 333 -409
203 1 332 159 331 408 -1 258 -121 421 -319 433 -41 2 -81 -2 -103 -10z m91
-176 c34 -24 53 -67 45 -98 -3 -15 -21 -41 -40 -60 -27 -27 -41 -33 -75 -33
-34 0 -48 6 -76 34 -56 56 -42 134 31 168 44 20 76 17 115 -11z"/>
<path d="M6248 4571 c-77 -25 -166 -110 -203 -194 -103 -234 -30 -525 153
-613 75 -37 192 -40 264 -7 149 68 230 259 199 470 -22 156 -96 268 -210 321
-58 27 -157 38 -203 23z m65 -165 c50 -21 72 -52 71 -98 -2 -56 -45 -98 -108
-105 -42 -5 -48 -3 -81 30 -63 63 -39 149 50 176 17 5 31 10 33 10 1 1 17 -5
35 -13z"/>
<path d="M4833 3560 c-85 -52 -82 -155 6 -253 86 -93 194 -134 328 -124 209
16 378 201 308 337 -17 33 -61 60 -99 60 -34 0 -82 -44 -97 -88 -21 -67 -78
-112 -144 -112 -77 0 -134 44 -157 123 -8 26 -22 46 -42 58 -39 24 -63 24
-103 -1z"/>
<path d="M4200 6870 c0 -5 5 -10 11 -10 5 0 7 5 4 10 -3 6 -8 10 -11 10 -2 0
-4 -4 -4 -10z"/>
<path d="M4160 6861 c0 -5 5 -13 10 -16 6 -3 10 -2 10 4 0 5 -4 13 -10 16 -5
3 -10 2 -10 -4z"/>
<path d="M2510 8398 c-52 -11 -277 -59 -500 -108 -223 -49 -454 -99 -514 -111
-128 -27 -156 -44 -156 -98 0 -43 21 -67 90 -101 34 -17 159 -87 188 -106 2
-1 -12 -32 -29 -70 -42 -90 -43 -138 -2 -175 27 -23 42 -27 126 -34 l95 -7 11
-96 c21 -171 23 -184 42 -203 11 -11 33 -19 53 -19 44 0 64 20 202 202 59 79
210 274 335 435 300 384 289 368 289 415 0 30 -7 46 -29 69 -35 35 -62 36
-201 7z m-83 -270 c-192 -238 -286 -357 -330 -419 -68 -97 -73 -99 -82 -42
-11 80 -16 93 -35 93 -10 0 -20 -4 -22 -10 -3 -11 -15 -12 -130 -10 -43 0 -78
5 -78 10 0 5 25 30 56 57 55 47 104 115 104 145 0 19 -28 43 -60 53 -64 19
-121 48 -108 56 15 8 338 84 508 119 58 12 128 28 155 35 28 7 62 14 77 14 27
1 24 -4 -55 -101z"/>
<path d="M1910 7762 c0 -5 7 -9 15 -9 8 0 12 4 9 9 -3 4 -9 8 -15 8 -5 0 -9
-4 -9 -8z"/>
<path d="M1383 7245 c-37 -16 -64 -55 -94 -136 -20 -54 -23 -58 -82 -83 -110
-47 -160 -113 -138 -185 10 -36 73 -104 129 -141 19 -13 23 -25 26 -91 6 -112
37 -160 113 -175 41 -8 90 9 162 57 56 38 61 39 103 29 23 -5 69 -10 100 -10
49 0 60 4 86 30 41 41 46 81 21 175 -12 44 -22 85 -22 90 0 6 17 37 37 69 47
78 55 120 30 165 -29 53 -71 72 -169 79 l-85 5 -36 49 c-22 32 -50 56 -77 68
-50 23 -62 24 -104 5z m124 -210 l51 -55 65 0 c92 0 101 -13 58 -91 -35 -63
-35 -73 -11 -161 21 -71 8 -81 -94 -72 l-81 6 -40 -36 c-22 -19 -47 -36 -55
-36 -13 0 -13 1 0 10 11 8 8 9 -12 4 -31 -7 -36 4 -39 86 -2 53 -4 57 -62 111
-43 40 -58 61 -54 73 4 9 36 30 72 46 42 19 68 37 74 52 40 97 52 118 64 118
8 0 37 -25 64 -55z"/>
<path d="M8932 7091 c-121 -31 -194 -174 -146 -289 81 -194 359 -167 403 38
18 86 -32 195 -108 235 -35 18 -108 26 -149 16z m98 -161 c40 -40 14 -110 -42
-110 -41 0 -68 25 -68 63 0 61 67 90 110 47z"/>
<path d="M991 6184 c0 -11 3 -14 6 -6 3 7 2 16 -1 19 -3 4 -6 -2 -5 -13z"/>
<path d="M1294 5799 c-3 -6 2 -18 12 -27 17 -16 17 -16 5 0 -7 9 -10 22 -6 28
3 5 4 10 1 10 -3 0 -8 -5 -12 -11z"/>
<path d="M9285 3550 c-3 -5 -2 -17 3 -26 6 -11 11 -13 16 -5 4 6 2 11 -4 11
-7 0 -10 7 -6 15 6 17 0 20 -9 5z"/>
<path d="M9234 3535 c22 -17 40 -20 32 -6 -3 5 -16 11 -28 14 -22 6 -22 5 -4
-8z"/>
<path d="M9232 3495 c0 -16 2 -22 5 -12 2 9 2 23 0 30 -3 6 -5 -1 -5 -18z"/>
<path d="M9311 3494 c0 -11 3 -14 6 -6 3 7 2 16 -1 19 -3 4 -6 -2 -5 -13z"/>
<path d="M9280 3480 c0 -11 5 -20 10 -20 6 0 10 9 10 20 0 11 -4 20 -10 20 -5
0 -10 -9 -10 -20z"/>
<path d="M8576 3340 c-65 -17 -153 -70 -202 -122 -216 -231 -90 -607 223 -668
85 -17 159 -6 243 36 120 60 196 166 220 308 29 162 -67 339 -224 416 -51 26
-80 32 -142 36 -44 2 -96 -1 -118 -6z m157 -144 c57 -21 99 -53 134 -105 35
-52 49 -93 37 -113 -9 -13 -11 -19 -13 -40 -1 -14 -71 -19 -71 -5 0 4 11 7 25
7 14 0 25 5 25 11 0 5 5 7 12 3 7 -4 8 -3 4 4 -5 9 -17 7 -44 -4 -20 -9 -45
-18 -54 -21 -10 -3 -18 -9 -18 -14 0 -6 8 -13 18 -16 9 -4 26 -15 37 -25 11
-11 21 -14 23 -8 2 5 11 10 20 10 12 0 13 -3 4 -12 -14 -14 -16 -32 -3 -24 5
4 8 -6 6 -21 -4 -36 -70 -95 -124 -112 -50 -15 -61 -9 -61 32 -1 35 -15 105
-24 114 -3 3 -45 -14 -93 -39 l-88 -45 -21 26 c-38 47 -47 74 -46 141 0 97 35
177 95 219 31 22 117 50 152 50 17 0 47 -6 68 -13z"/>
<path d="M1610 3289 c-108 -43 -170 -188 -126 -293 42 -100 151 -162 244 -137
67 17 117 53 148 107 67 115 25 252 -96 314 -42 22 -127 26 -170 9z m130 -159
c35 -35 25 -92 -22 -116 -35 -18 -61 -11 -88 23 -25 33 -25 54 1 87 26 33 79
36 109 6z"/>
<path d="M1228 2763 c6 -2 10 -9 6 -14 -3 -5 0 -9 5 -9 6 0 11 7 11 15 0 8 -8
15 -17 14 -11 0 -13 -3 -5 -6z"/>
<path d="M2016 2759 c-84 -20 -146 -95 -207 -251 -38 -97 -32 -93 -162 -128
-176 -46 -257 -123 -257 -242 0 -81 54 -153 185 -249 l74 -54 -6 -100 c-10
-179 27 -274 125 -322 89 -43 159 -27 315 73 37 24 74 44 82 44 8 0 53 -13
102 -29 153 -51 228 -50 301 6 90 68 97 177 26 414 -2 9 21 45 61 90 84 95
115 147 122 209 8 68 -17 129 -72 178 -57 50 -96 62 -233 69 l-112 6 -50 81
c-105 175 -186 231 -294 205z m84 -206 c39 -27 46 -35 109 -131 33 -50 64 -93
70 -96 5 -3 61 -10 124 -15 117 -10 169 -26 181 -56 18 -48 1 -82 -88 -184
-72 -83 -81 -113 -55 -191 10 -33 22 -85 25 -117 5 -48 3 -62 -13 -82 -17 -20
-28 -24 -70 -22 -28 0 -86 10 -129 21 -42 11 -90 20 -106 20 -33 0 -98 -31
-177 -84 -73 -50 -119 -48 -146 5 -11 20 -15 62 -15 148 0 66 -3 127 -6 136
-4 9 -49 50 -100 91 -106 84 -129 117 -114 161 14 39 47 56 171 92 116 34 136
49 164 128 34 93 65 152 91 172 32 25 52 26 84 4z"/>
<path d="M1170 2740 c-22 -22 -30 -97 -8 -84 7 5 9 2 5 -8 -3 -9 0 -21 6 -27
15 -15 24 -14 24 3 0 8 -5 12 -12 10 -7 -3 -10 12 -9 44 1 52 10 76 25 67 5
-4 9 -1 9 4 0 17 -18 13 -40 -9z"/>
<path d="M1190 2719 c0 -6 5 -7 11 -3 6 3 15 0 20 -7 6 -10 11 -11 17 -3 4 6
14 13 22 16 8 3 -4 6 -27 6 -24 0 -43 -4 -43 -9z"/>
<path d="M1233 2665 c-17 -17 -20 -24 -11 -33 14 -14 32 -16 23 -2 -3 5 -1 19
5 31 16 28 10 29 -17 4z"/>
<path d="M7790 2623 c-40 -8 -91 -53 -111 -99 -23 -52 -33 -106 -54 -289 l-16
-140 -43 -45 c-55 -56 -66 -79 -66 -128 0 -67 50 -112 138 -126 34 -5 43 -3
39 6 -3 7 6 33 20 56 26 45 26 61 2 119 -13 32 -13 34 36 83 l49 50 12 139
c13 147 22 176 53 186 29 9 70 -16 167 -100 l85 -75 137 0 c161 0 186 -8 190
-61 2 -26 -9 -59 -42 -124 -25 -50 -46 -104 -46 -121 0 -21 17 -57 48 -105 98
-150 105 -165 100 -219 -4 -42 -2 -52 16 -63 61 -40 120 -33 155 18 43 63 20
132 -95 294 l-46 64 55 116 c85 177 93 217 59 281 -35 65 -73 75 -274 75
l-177 0 -52 40 c-199 153 -260 183 -339 168z"/>
<path d="M8956 2364 c-9 -23 1 -33 27 -27 18 4 19 3 7 -7 -13 -9 -12 -11 4 -8
28 4 31 25 5 33 -14 5 -25 2 -30 -6 -7 -11 -9 -11 -9 -1 0 7 10 17 23 22 22 9
22 9 1 9 -12 1 -25 -6 -28 -15z"/>
<path d="M8904 2345 c-8 -20 33 -75 51 -69 8 4 12 10 9 15 -3 5 -9 7 -14 4 -4
-3 -13 2 -19 9 -8 10 -9 16 -1 21 5 3 10 11 10 18 0 6 -7 2 -16 -9 -15 -19
-15 -18 -11 4 6 25 -1 30 -9 7z"/>
<path d="M8906 2275 c4 -8 11 -15 16 -15 6 0 5 6 -2 15 -7 8 -14 15 -16 15 -2
0 -1 -7 2 -15z"/>
</g>
</svg>
